<?xml version="1.0" standalone="no"?>
<!DOCTYPE svg PUBLIC "-//W3C//DTD SVG 20010904//EN"
 "http://www.w3.org/TR/2001/REC-SVG-20010904/DTD/svg10.dtd">
<svg version="1.0" xmlns="http://www.w3.org/2000/svg"
 width="512.000000pt" height="512.000000pt" viewBox="0 0 512.000000 512.000000"
 preserveAspectRatio="xMidYMid meet">
<metadata>
Created by potrace 1.14, written by Peter Selinger 2001-2017
</metadata>
<g transform="translate(0.000000,512.000000) scale(0.100000,-0.100000)"
fill="#000000" stroke="none">
<path d="M670 4940 c-24 -18 -25 -23 -28 -165 l-3 -146 -27 -10 c-100 -36
-167 -108 -197 -214 -44 -149 31 -311 173 -375 l52 -24 0 -87 0 -87 -32 -13
c-97 -38 -164 -112 -193 -213 -48 -165 43 -336 208 -390 14 -5 17 -18 17 -94
l0 -88 -52 -24 c-64 -29 -126 -89 -158 -155 -35 -71 -35 -198 0 -270 32 -65
92 -124 158 -155 52 -25 52 -25 52 -71 0 -45 0 -46 -52 -69 -262 -118 -240
-503 35 -594 16 -5 17 -26 17 -253 0 -136 3 -258 6 -271 9 -31 53 -52 109 -52
l45 0 0 -125 c0 -137 11 -178 52 -189 13 -3 481 -6 1041 -6 l1018 0 -29 -52
c-17 -29 -33 -69 -36 -88 -3 -19 -12 -78 -20 -130 -8 -52 -18 -115 -21 -140
-4 -25 -10 -65 -15 -89 -8 -44 -7 -63 5 -101 8 -26 61 -45 91 -34 13 5 105 72
204 148 l179 139 61 106 c33 58 77 135 98 171 l38 65 250 5 c137 3 250 7 251
8 1 1 9 15 18 32 13 25 15 92 15 446 l0 417 91 156 c50 86 94 163 99 171 64
106 90 154 90 161 0 5 5 9 10 9 6 0 10 4 10 10 0 5 33 65 73 132 40 68 76 130
80 138 4 8 25 44 47 80 93 152 130 227 135 274 12 95 -43 198 -128 242 -81 41
-199 26 -264 -34 -25 -22 -103 -133 -103 -146 0 -2 -31 -57 -70 -121 l-70
-118 -2 1011 c-3 955 -4 1012 -21 1029 -16 16 -48 18 -342 23 l-323 5 -104
100 c-57 56 -114 109 -128 118 -23 16 -109 17 -1205 17 -1148 0 -1181 -1
-1205 -20z m2292 -400 c3 -233 5 -261 21 -277 16 -16 44 -18 277 -21 l260 -3
0 -1201 0 -1201 -162 -279 -163 -278 -1197 0 -1198 0 0 205 c0 187 2 206 18
211 111 36 212 155 212 251 0 13 -11 35 -25 48 -45 46 -102 27 -134 -44 -11
-26 -32 -58 -46 -71 l-25 -23 0 277 0 276 28 10 c52 20 77 35 118 76 46 47 74
100 81 155 5 31 1 42 -20 63 -45 45 -106 28 -132 -38 -17 -41 -51 -86 -67 -86
-4 0 -8 140 -8 310 l0 310 28 10 c52 20 77 35 118 76 46 47 74 100 81 155 5
31 1 42 -20 63 -45 45 -106 28 -132 -38 -17 -41 -51 -86 -67 -86 -4 0 -8 140
-8 310 l0 310 28 10 c52 20 77 35 118 76 46 47 74 100 81 155 5 31 1 42 -20
63 -45 45 -106 28 -132 -38 -17 -41 -51 -86 -67 -86 -4 0 -8 137 -8 305 l0
305 1080 0 1079 0 3 -260z m303 0 l140 -140 -143 0 -142 0 0 140 c0 77 1 140
3 140 1 0 65 -63 142 -140z m575 -1069 l0 -1088 -50 -84 c-27 -46 -62 -106
-77 -133 l-28 -49 -5 1121 -5 1122 -100 100 -100 100 183 0 182 0 0 -1089z
m-3200 849 c0 -75 -4 -130 -9 -130 -16 0 -58 63 -66 97 -3 17 -3 48 1 68 6 36
47 95 65 95 5 0 9 -58 9 -130z m-6 -929 c-12 -12 -63 62 -69 100 -9 54 1 89
38 134 l32 39 3 -133 c1 -74 0 -136 -4 -140z m3827 -480 c25 -32 21 -75 -13
-124 l-23 -34 -68 42 -67 42 32 49 c46 68 98 78 139 25z m-3821 -198 l0 -136
-26 24 c-50 45 -67 118 -42 176 13 32 47 73 60 73 4 0 8 -62 8 -137z m3641
-59 c33 -19 59 -41 59 -47 0 -7 -9 -22 -18 -35 l-18 -24 -65 38 c-35 20 -65
38 -67 39 -5 4 33 65 42 65 4 0 35 -16 67 -36z m-61 -247 c0 -4 -24 -49 -53
-100 -77 -132 -339 -579 -462 -787 -37 -63 -79 -135 -93 -160 -14 -25 -73
-126 -132 -225 -59 -99 -123 -209 -144 -245 -20 -36 -42 -74 -49 -85 -39 -63
-74 -124 -87 -149 -8 -16 -20 -30 -27 -33 -8 -3 -106 50 -131 72 -2 2 112 200
254 441 141 242 311 531 377 644 65 113 134 230 152 260 18 30 79 134 135 230
56 96 108 185 116 197 l14 22 65 -37 c35 -20 65 -41 65 -45z m-3580 -407 c0
-75 -4 -130 -9 -130 -19 0 -63 70 -68 109 -3 23 0 55 7 73 14 35 48 78 62 78
4 0 8 -58 8 -130z m3200 -810 l0 -230 -135 0 c-74 0 -135 4 -135 8 0 4 13 28
28 53 15 24 74 124 131 222 57 97 105 177 107 177 2 0 4 -103 4 -230z m-752
-92 c-8 -13 -30 -49 -48 -80 l-32 -58 -1024 0 -1024 0 0 80 0 80 1071 0 1071
0 -14 -22z m-55 -587 l28 -18 -33 -25 c-56 -42 -59 -43 -53 -14 3 14 7 37 10
51 6 30 11 31 48 6z"/>
<path d="M1310 4060 c-41 -41 -33 -112 15 -130 17 -6 360 -10 923 -10 866 0
898 1 922 19 19 15 25 29 25 60 0 82 79 76 -950 79 -902 2 -915 2 -935 -18z"/>
<path d="M1328 3593 c-29 -8 -51 -52 -43 -89 12 -67 -35 -64 962 -64 867 0
899 1 923 19 19 15 25 29 25 60 0 82 79 76 -943 77 -499 1 -915 0 -924 -3z"/>
<path d="M1328 3113 c-29 -7 -51 -51 -43 -89 12 -67 -35 -64 965 -64 883 0
900 0 920 20 41 41 33 112 -15 130 -26 10 -1791 13 -1827 3z"/>
<path d="M1328 2633 c-29 -7 -51 -51 -43 -89 12 -67 -35 -64 965 -64 883 0
900 0 920 20 41 41 33 112 -15 130 -26 10 -1791 13 -1827 3z"/>
<path d="M1328 2153 c-29 -7 -51 -51 -43 -89 11 -62 23 -64 392 -64 180 0 338
3 350 6 34 9 56 50 48 90 -11 62 -22 64 -397 63 -183 -1 -341 -3 -350 -6z"/>
</g>
</svg>
